<svg xmlns="http://www.w3.org/2000/svg" version="1.1" xmlns:xlink="http://www.w3.org/1999/xlink" xmlns:svgjs="http://svgjs.dev/svgjs" width="100%" height="100%" viewBox="0 0 1000 600"><rect width="1000" height="600" x="0" y="0" fill="#050505"/><g><circle r="166.66666666666666" cx="343.2364298502604" cy="365.4586615064802" fill="#616161" transform="matrix(0.7079354797006069,0,0,0.707935479700607,0,41.27886070284754)"/><path d="M299.9626256160816 396.32169612493715L373.89119480643785 396.32169612493715L394.45667037428655 440.45859955058063L415.2304792691612 440.45859955058063L345.3792909077416 290.45860409188674L334.66500551783497 290.45860409188674L271.24238839035945 440.45859955058063L281.09357856830144 440.45859955058063L299.9626256160816 396.32169612493715ZM335.7364340568256 314.44669860373347L369.3971473234492 386.67883927402113L304.0400064450183 386.67883927402113L334.8733388448609 314.44669860373347L335.7364340568256 314.44669860373347Z " fill="#050505" transform="matrix(0.7079354797006069,0,0,0.707935479700607,0,41.27886070284754)"/><path d="M614.1359383543335 369.3569551396189L667.9332222855578 369.3569551396189L682.898569788165 401.4750598376889L698.0155199427522 401.4750598376889L647.1853164859955 292.32115041201615L639.388608669876 292.32115041201615L593.236429902791 401.4750598376889L600.4050695892786 401.4750598376889L614.1359383543335 369.3569551396189ZM640.1682794514879 309.7771129114392L664.66293650713 362.33991810511134L617.1030188288012 362.33991810511134L639.5402113218561 309.7771129114392L640.1682794514879 309.7771129114392ZM733.4255679409615 323.50798167649407L720.1711646535584 323.50798167649407L720.1711646535584 401.4750598376889L733.4255679409615 401.4750598376889L733.4255679409615 323.50798167649407ZM718.2869602646629 298.86172196887196L718.2869602646629 298.86172196887196Q718.2869602646629 302.30526792099135 720.7992327831903 304.7958829178073Q723.2898477800062 307.2864979146233 726.7117362104142 307.2864979146233L726.7117362104142 307.2864979146233Q730.1552821625336 307.2864979146233 732.6458971593495 304.7958829178073Q735.1365121561655 302.30526792099135 735.1365121561655 298.86172196887196L735.1365121561655 298.86172196887196Q735.1365121561655 295.439833538464 732.6458971593495 292.949218541648Q730.1552821625336 290.45860354483204 726.7117362104142 290.45860354483204L726.7117362104142 290.45860354483204Q723.2898477800062 290.45860354483204 720.7992327831903 292.949218541648Q718.2869602646629 295.439833538464 718.2869602646629 298.86172196887196ZM804.0507462419771 341.2888070015888L812.9519876653802 341.2888070015888Q812.9519876653802 337.0655902678574 810.7645779725244 333.49209918546927Q808.5771682796687 329.89695058136977 804.7654444584548 327.319705497708Q800.9320631155293 324.7641179357578 795.8642030350517 323.26974893766817Q790.796342954574 321.7970374612901 785.0354421793302 321.7970374612901L785.0354421793302 321.7970374612901Q779.5777467080466 321.7970374612901 774.813091931529 323.20477637253384Q770.0700946767231 324.5908577620662 766.5615761594693 327.4063355845538Q763.0530576422154 330.2218134070414 761.0172506013398 334.33674253221557Q759.0031010821757 338.4733291791012 759.0031010821757 343.9310246503848L759.0031010821757 343.9310246503848Q759.0031010821757 351.4245271625441 762.4249895125837 355.7776890265441Q765.8468779429917 360.15250841225566 771.0013681103151 362.7947260610517Q776.1558582776386 365.45860123155916 782.1549917917082 367.08291535991737Q788.1541253057779 368.72888700998703 793.3086154731014 370.6780639640169Q798.4414481187134 372.6272409180468 801.8849940708328 375.5943213925145Q805.3068825012408 378.5614018669822 805.3068825012408 383.69423451259416L805.3068825012408 383.69423451259416Q805.3068825012408 385.8816442054499 804.6138418064746 388.22065655028575Q803.899143589997 390.5596688951216 802.0365967228129 392.5088458491515Q800.1523923339173 394.45802280318134 796.8821065554895 395.7791316275794Q793.6118207770617 397.10024045197736 788.6305907834296 397.10024045197736L788.6305907834296 397.10024045197736Q782.3932245305341 397.10024045197736 778.1050352316684 395.1510634979475Q773.8168459328027 393.2018865439177 771.0879981971609 390.4730388082758Q768.359150461519 387.744191072634 767.1896442891011 384.9503707718579Q766.0201381166833 382.1348929493703 766.0201381166833 380.2723460821862L766.0201381166833 380.2723460821862L755.8844179557279 380.2723460821862Q755.8844179557279 384.6255079461862 757.898567474892 388.7620945930718Q759.9343745157677 392.89868123995745 764.0709611626534 396.16896701838533Q768.1858902878275 399.4392527968132 774.2066813236087 401.3884297508431Q780.2058148376784 403.337606704873 788.1541253057779 403.337606704873L788.1541253057779 403.337606704873Q802.4914046787533 403.337606704873 809.7466744520866 397.03526788684303Q817.0019442254201 390.7112715471017 817.0019442254201 380.4239487341663L817.0019442254201 380.4239487341663Q817.0019442254201 372.930446222007 813.4934257081662 368.42568170602686Q809.9849071909125 363.8992596683353 804.678814371609 361.17041193269347Q799.3727215523054 358.44156419705166 793.2219853862556 356.73061998184767Q787.0712492202058 354.9980182449322 781.7651564009022 353.1354713777481Q776.4590635815987 351.272924510564 772.950545064345 348.6090493400565Q769.4420265470912 345.96683169126044 769.4420265470912 341.1372043496087L769.4420265470912 341.1372043496087Q769.4420265470912 339.10139730873306 770.2216973287032 336.84901505074293Q771.0013681103151 334.57497527104147 772.8639149774992 332.6257983170116Q774.7481193663948 330.67662136298173 777.8668024928426 329.3555125385837Q780.9854856192903 328.03440371418566 785.663510308962 328.03440371418566L785.663510308962 328.03440371418566Q790.3415349986337 328.03440371418566 793.7634234290417 329.3555125385837Q797.2069693811611 330.67662136298173 799.545981725997 332.6257983170116Q801.8849940708328 334.57497527104147 802.967870156405 336.9139876158773Q804.0507462419771 339.2529999607131 804.0507462419771 341.2888070015888L804.0507462419771 341.2888070015888ZM842.2546145409626 323.50798167649407L828.6970059495992 323.50798167649407L855.6822780020573 401.4750598376889L864.0853964260971 401.4750598376889L882.1910845768634 349.23711746968837L882.7974951847839 349.23711746968837L903.0689355066945 401.4750598376889L910.4108353668737 401.4750598376889L938.782188808864 323.50798167649407L930.6822756887843 323.50798167649407L909.4795619332817 381.83168764541006L908.8514938036498 381.83168764541006L886.6958490928437 323.50798167649407L883.5771659663958 323.50798167649407L863.1541229925051 382.2864956013504L862.5260548628733 382.2864956013504L842.2546145409626 323.50798167649407ZM983.0718207087649 321.7970374612901L983.0718207087649 321.7970374612901Q994.463677128984 321.7970374612901 1000.7010433818796 324.98069315287216Q1006.9384096347751 328.18600636616577 1009.8188600223971 333.3404965334892Q1012.699310410019 338.4733291791012 1013.1757758876707 345.1871609096485Q1013.630583843611 351.8793351184844 1013.630583843611 358.89637215299194L1013.630583843611 358.89637215299194L1013.630583843611 401.4750598376889L1001.0042486858397 401.4750598376889L1001.0042486858397 393.8299546735495Q996.4778266481482 398.204774059261 989.4607896136407 400.7820191429227Q982.4437525791332 403.337606704873 975.4267155446255 403.337606704873L975.4267155446255 403.337606704873Q968.7345413357897 403.337606704873 963.5800511684663 400.99859436003715Q958.4255610011428 398.6595820152013 955.0036725707348 394.9344882808331Q951.5817841403268 391.18773702475346 949.8491824034113 386.50971233508176Q948.1382381882074 381.83168764541006 948.1382381882074 377.0020603037583L948.1382381882074 377.0020603037583Q948.1382381882074 371.99917278841497 950.022442577103 367.01794279478304Q951.8849894442869 362.0150552794397 955.6317407003667 358.05172880624565Q959.3784919564463 354.06674481134013 964.83618742773 351.5761298145242Q970.2938828990136 349.08551481770826 977.3109199335211 349.08551481770826L977.3109199335211 349.08551481770826Q984.3279569680287 349.08551481770826 990.6302957860585 351.81436255335007Q996.9542921257998 354.5432102889919 1001.0042486858397 359.5244402826238L1001.0042486858397 359.5244402826238L1001.0042486858397 352.8322660737879Q1001.0042486858397 340.0326707423251 997.1925248646257 333.7953044894295Q993.3591435217004 327.5579382365339 983.2234233607451 327.5579382365339L983.2234233607451 327.5579382365339Q978.870261496745 327.5579382365339 975.5783181966057 328.6624718438175Q972.3080324181778 329.74534792938965 969.730787334516 331.69452488341955Q967.1751997725657 333.6437018374494 964.9877900797101 336.5241522250713Q962.8003803868544 339.4046026126932 960.6129706939985 342.9997512167928L960.6129706939985 342.9997512167928L952.5130575739189 334.8998380967131Q954.7004672667747 332.56082575187725 957.1044521767448 330.2218134070414Q959.5300946084265 327.88280106220554 963.0386131256802 325.99859667331003Q966.5471316429339 324.1360498061259 971.3767589845856 322.966543633708Q976.2063863262376 321.7970374612901 983.0718207087649 321.7970374612901ZM1001.0042486858397 382.611358427022L1001.0042486858397 370.59143387717114Q1000.2245779042278 368.72888700998703 998.7518664278497 366.2382720131711Q997.2574974297602 363.74765701635516 994.9184850849242 361.4086446715193Q992.5794727400885 359.06963232668346 989.3091869616605 357.4236606766138Q986.0389011832326 355.7776890265441 981.512479145541 355.7776890265441L981.512479145541 355.7776890265441Q976.9860571078494 355.7776890265441 973.2393058517698 357.5752633285939Q969.5142121174017 359.3728376306437 966.9369670337398 362.2532880182656Q964.3597219500782 365.1337384058875 962.9519830388344 369.03209231394726Q961.5442441275907 372.930446222007 961.5442441275907 377.15366295573835L961.5442441275907 377.15366295573835Q961.5442441275907 382.1348929493703 963.3418184296404 385.7950141186042Q965.1393927316901 389.47679280954947 967.9548705541777 392.0323803714997Q970.7486908549538 394.60962545516145 974.1922368070733 395.8657617144251Q977.6141252374813 397.10024045197736 980.7328083639292 397.10024045197736L980.7328083639292 397.10024045197736Q983.6998888383968 397.10024045197736 986.7319418779988 396.0173643664052Q989.7856524393123 394.9344882808331 992.514500174954 392.9853113268032Q995.243347910596 391.03613437277335 997.4091000817402 388.37225920226587Q999.5965097745959 385.73004155346985 1001.0042486858397 382.611358427022L1001.0042486858397 382.611358427022ZM1051.8344521425965 323.50798167649407L1038.5800488551934 323.50798167649407L1038.5800488551934 401.4750598376889L1051.8344521425965 401.4750598376889L1051.8344521425965 354.3916076370118Q1051.8344521425965 347.98098121042466 1053.3288211406862 343.54118925957886Q1054.8015326170641 339.10139730873306 1057.1405449619 336.28591948624546Q1059.4795573067358 333.49209918546927 1062.2950351292234 332.2359629262056Q1065.0888554299995 331.00148418865336 1067.752730600507 331.00148418865336L1067.752730600507 331.00148418865336Q1071.3262216828953 331.00148418865336 1074.3799322442087 333.3404965334892Q1077.4119852838107 335.679508878325 1078.8197241950543 337.69365839748923L1078.8197241950543 337.69365839748923L1084.125817014358 328.03440371418566Q1082.7180781031143 326.15019932529015 1080.7689011490843 324.91572058773784Q1078.8197241950543 323.6595843284742 1076.8705472410247 322.966543633708Q1074.9213702869947 322.25184541723036 1073.275398636925 322.035270200116Q1071.6510845085668 321.7970374612901 1070.8714137269549 321.7970374612901L1070.8714137269549 321.7970374612901Q1064.3091846483876 321.7970374612901 1059.9560227843876 325.3705285436782Q1055.581203398676 328.9656771477777 1052.7657255761885 335.98271418228524L1052.7657255761885 335.98271418228524L1051.8344521425965 335.98271418228524L1051.8344521425965 323.50798167649407ZM1129.0218595221795 383.2394265566539L1128.3937913925474 383.2394265566539L1101.430176861801 323.50798167649407L1087.2445001408057 323.50798167649407L1122.156425139652 400.5437864040968L1113.9049093675922 420.8152267260075Q1112.4971704563484 424.38871780839554 1110.2447881983583 426.57612750125134Q1107.9707484186567 428.763537194107 1105.0036679441891 428.763537194107L1105.0036679441891 428.763537194107Q1102.2098476434128 428.763537194107 1099.6326025597511 427.11756554403735Q1097.0553574760893 425.4932514156792 1095.6476185648457 422.3745682892314L1095.6476185648457 422.3745682892314L1088.8038417040298 435.3041087509629Q1091.749264656786 437.96798392147036 1095.3444132608854 439.20246265902256Q1098.939561864985 440.45859891828627 1102.0582449914327 440.45859891828627L1102.0582449914327 440.45859891828627Q1106.411406855433 440.45859891828627 1109.6816926338606 438.27118922543053Q1112.973635934 436.0837795325748 1115.464250930816 432.575261015321Q1117.954865927632 429.06674249806724 1119.817412794816 424.77855319920155Q1121.7016171837115 420.49036390033586 1123.4125613989156 416.2888046883159L1123.4125613989156 416.2888046883159L1161.1399642202493 323.50798167649407L1153.5165165778214 323.50798167649407L1129.0218595221795 383.2394265566539ZM1205.42959612015 321.7970374612901L1205.42959612015 321.7970374612901Q1216.8214525403691 321.7970374612901 1223.058818793265 324.98069315287216Q1229.2961850461604 328.18600636616577 1232.1766354337824 333.3404965334892Q1235.0570858214041 338.4733291791012 1235.533551299056 345.1871609096485Q1235.9883592549963 351.8793351184844 1235.9883592549963 358.89637215299194L1235.9883592549963 358.89637215299194L1235.9883592549963 401.4750598376889L1223.362024097225 401.4750598376889L1223.362024097225 393.8299546735495Q1218.8356020595334 398.204774059261 1211.8185650250257 400.7820191429227Q1204.8015279905185 403.337606704873 1197.7844909560108 403.337606704873L1197.7844909560108 403.337606704873Q1191.092316747175 403.337606704873 1185.9378265798514 400.99859436003715Q1180.8049939342395 398.6595820152013 1177.3614479821201 394.9344882808331Q1173.9395595517121 391.18773702475346 1172.228615336508 386.50971233508176Q1170.4960135995925 381.83168764541006 1170.4960135995925 377.0020603037583L1170.4960135995925 377.0020603037583Q1170.4960135995925 371.99917278841497 1172.3802179884883 367.01794279478304Q1174.2427648556722 362.0150552794397 1177.989516111752 358.05172880624565Q1181.7362673678317 354.06674481134013 1187.193962839115 351.5761298145242Q1192.651658310399 349.08551481770826 1199.6686953449064 349.08551481770826L1199.6686953449064 349.08551481770826Q1206.6857323794138 349.08551481770826 1212.9880711974438 351.81436255335007Q1219.3120675371852 354.5432102889919 1223.362024097225 359.5244402826238L1223.362024097225 359.5244402826238L1223.362024097225 352.8322660737879Q1223.362024097225 340.0326707423251 1219.550300276011 333.7953044894295Q1215.7169189330857 327.5579382365339 1205.5811987721304 327.5579382365339L1205.5811987721304 327.5579382365339Q1201.2280369081304 327.5579382365339 1197.9577511297025 328.6624718438175Q1194.6658078295632 329.74534792938965 1192.110220267613 331.69452488341955Q1189.532975183951 333.6437018374494 1187.3455654910954 336.5241522250713Q1185.1581557982397 339.4046026126932 1182.9707461053838 342.9997512167928L1182.9707461053838 342.9997512167928L1174.8708329853043 334.8998380967131Q1177.0582426781598 332.56082575187725 1179.4622275881302 330.2218134070414Q1181.8878700198115 327.88280106220554 1185.3963885370654 325.99859667331003Q1188.9049070543192 324.1360498061259 1193.734534395971 322.966543633708Q1198.5641617376227 321.7970374612901 1205.42959612015 321.7970374612901ZM1223.362024097225 382.611358427022L1223.362024097225 370.59143387717114Q1222.582353315613 368.72888700998703 1221.1096418392349 366.2382720131711Q1219.6152728411453 363.74765701635516 1217.2762604963095 361.4086446715193Q1214.9372481514738 359.06963232668346 1211.6669623730459 357.4236606766138Q1208.396676594618 355.7776890265441 1203.8702545569263 355.7776890265441L1203.8702545569263 355.7776890265441Q1199.3438325192346 355.7776890265441 1195.6187387848668 357.5752633285939Q1191.871987528787 359.3728376306437 1189.2947424451254 362.2532880182656Q1186.7174973614633 365.1337384058875 1185.3097584502198 369.03209231394726Q1183.9236770606872 372.930446222007 1183.9236770606872 377.15366295573835L1183.9236770606872 377.15366295573835Q1183.9236770606872 382.1348929493703 1185.6995938410257 385.7950141186042Q1187.4971681430754 389.47679280954947 1190.3126459655632 392.0323803714997Q1193.1064662663393 394.60962545516145 1196.5500122184585 395.8657617144251Q1199.9719006488667 397.10024045197736 1203.0905837753144 397.10024045197736L1203.0905837753144 397.10024045197736Q1206.0576642497822 397.10024045197736 1209.0897172893842 396.0173643664052Q1212.1434278506977 394.9344882808331 1214.8722755863394 392.9853113268032Q1217.601123321981 391.03613437277335 1219.788533014837 388.37225920226587Q1221.954285185981 385.73004155346985 1223.362024097225 382.611358427022L1223.362024097225 382.611358427022Z " fill="#616161" transform="matrix(0.7079354797006069,0,0,0.707935479700607,0,41.27886070284754)"/></g></svg>